<svg width="32" height="32" viewBox="0 0 32 32" fill="none" xmlns="http://www.w3.org/2000/svg">
<g id="vuesax/twotone/backward-item">
<g id="backward-item">
<path id="Vector" d="M29.3334 6.86662V10.4666C29.3334 13.4666 28.1334 14.6666 25.1334 14.6666H21.5334C18.5334 14.6666 17.3334 13.4666 17.3334 10.4666V6.86662C17.3334 3.86662 18.5334 2.66663 21.5334 2.66663H25.1334C28.1334 2.66663 29.3334 3.86662 29.3334 6.86662Z" stroke="#167A91" stroke-width="1.5" stroke-linecap="round" stroke-linejoin="round"/>
<path id="Vector_2" d="M14.6666 21.5334V25.1334C14.6666 28.1334 13.4666 29.3334 10.4666 29.3334H6.86663C3.86663 29.3334 2.66663 28.1334 2.66663 25.1334V21.5334C2.66663 18.5334 3.86663 17.3334 6.86663 17.3334H10.4666C13.4666 17.3334 14.6666 18.5334 14.6666 21.5334Z" stroke="#167A91" stroke-width="1.5" stroke-linecap="round" stroke-linejoin="round"/>
<path id="Vector_3" opacity="0.34" d="M23.1733 14.6667V18.16C23.1733 21.7467 21.7467 23.1733 18.16 23.1733H14.6667V21.5333C14.6667 18.5333 13.4667 17.3333 10.4667 17.3333H8.82666V13.84C8.82666 10.2533 10.2533 8.82666 13.84 8.82666H17.3333V10.4667C17.3333 13.4667 18.5333 14.6667 21.5333 14.6667H23.1733Z" stroke="#11DDC5" stroke-width="1.5" stroke-linecap="round" stroke-linejoin="round"/>
</g>
</g>
</svg>
